<svg xmlns="http://www.w3.org/2000/svg" xmlns:xlink="http://www.w3.org/1999/xlink" width="586.04" height="376.142" viewBox="0 0 586.04 376.142">
  <defs>
    <clipPath id="clip-path">
      <rect id="Rectangle_1" data-name="Rectangle 1" width="586.04" height="375.908" fill="none"/>
    </clipPath>
  </defs>
  <g id="logo" transform="translate(0 0.03)">
    <path id="Path_20" data-name="Path 20" d="M264.54,443.257a10.337,10.337,0,0,0,7.894-2.49,9.868,9.868,0,0,0-.7-14.378,9.915,9.915,0,0,0-6.719-1.833H254.062v18.8ZM248,468.067V419.434h16.634a18.185,18.185,0,0,1,11.935,3.289,15.177,15.177,0,0,1,5.075,11.324,14.473,14.473,0,0,1-4.37,10.29,16.117,16.117,0,0,1-11.935,3.947H254.2v19.782Z" transform="translate(-245.651 -236.585)" fill="#003a5d"/>
    <path id="Path_21" data-name="Path 21" d="M283.309,441.071a21.425,21.425,0,0,0-2.349-10.479,9.82,9.82,0,0,0-8.458-5.169c-8.787,0-11.183,9.4-11.183,16.164s2.725,15.553,11.042,15.553,10.948-9.4,10.948-16.07m-27.159.423c0-9.4,4.7-20.064,16.164-20.064s16.164,9.868,16.164,19.359-4.7,20.252-16.117,20.252-16.211-9.868-16.211-19.547" transform="translate(-215.505 -228.996)" fill="#003a5d"/>
    <path id="Path_22" data-name="Path 22" d="M278.064,440.432a8.223,8.223,0,0,0,6.25-1.974,7.283,7.283,0,0,0,2.208-5.31,7.564,7.564,0,0,0-2.772-6.062,7.707,7.707,0,0,0-5.31-1.457h-8.646v14.8Zm-13.2,19.641V421.59h13.157a14.1,14.1,0,0,1,9.4,2.584,11.983,11.983,0,0,1,4.041,8.975,11.511,11.511,0,0,1-3.43,8.129,12.921,12.921,0,0,1-9.4,3.148h-8.787v15.647Z" transform="translate(-183.288 -228.591)" fill="#003a5d"/>
    <path id="Path_23" data-name="Path 23" d="M299.777,421.55v24.34a14.756,14.756,0,0,1-2.866,10.431,13.438,13.438,0,0,1-10.572,4.276,14.1,14.1,0,0,1-10.572-3.712,15.082,15.082,0,0,1-3.054-11V421.55h4.7v24.34a13.722,13.722,0,0,0,1.5,7.471,10.855,10.855,0,0,0,14.66.235,11.23,11.23,0,0,0,1.88-7.706V421.55Z" transform="translate(-154.629 -228.552)" fill="#003a5d"/>
    <path id="Path_24" data-name="Path 24" d="M56.422,79.534H33.21V41.05h4.934V75.258H56.422v4.276Z" transform="translate(122.839 151.948)" fill="#003a5d"/>
    <path id="Path_25" data-name="Path 25" d="M300.956,426.719l-6.062,18.466h12.076ZM312,460.034l-3.947-11.23H293.532l-3.524,11.23H285.92l12.687-38.484h5.686l12.781,38.484Z" transform="translate(-105.39 -228.552)" fill="#003a5d"/>
    <path id="Path_26" data-name="Path 26" d="M56.743,79.534v-34.3H45.56V41.05h27.3v4.182H61.677v34.3Z" transform="translate(168.519 151.948)" fill="#003a5d"/>
    <path id="Path_27" data-name="Path 27" d="M53.06,41.05h4.934V79.534H53.06V41.05Z" transform="translate(196.261 151.948)" fill="#003a5d"/>
    <path id="Path_28" data-name="Path 28" d="M330.823,441.071a21.427,21.427,0,0,0-2.349-10.479,9.727,9.727,0,0,0-8.458-5.169c-8.787,0-11.183,9.4-11.183,16.164s2.772,15.553,11.089,15.553,10.9-9.4,10.9-16.07m-27.112.423c0-9.4,4.7-20.064,16.117-20.064s16.164,9.868,16.164,19.359-4.934,20.252-16.07,20.252-16.211-9.868-16.211-19.547" transform="translate(-39.588 -228.996)" fill="#003a5d"/>
    <path id="Path_29" data-name="Path 29" d="M88.825,79.534,68.808,45.984v33.55H64.72V41.05h6.155L89.53,72.438V41.05h4.088V79.534Z" transform="translate(239.389 151.948)" fill="#003a5d"/>
    <path id="Path_30" data-name="Path 30" d="M359.478,453.4c-2.349,9.4-7.894,15.882-18.373,15.882-14.331,0-20.2-13.533-20.2-25.515s6.3-24.528,20.675-24.528a17.949,17.949,0,0,1,17.9,15.553l-5.874,1.034c-1.739-6.155-4.7-11.465-12.217-11.465-10.807,0-13.674,11.465-13.674,19.923a30.872,30.872,0,0,0,2.3,12.123,12.405,12.405,0,0,0,11.089,7.8c7.565,0,11.136-5.639,12.687-11.982l5.686,1.175Z" transform="translate(23.995 -237.096)" fill="#003a5d"/>
    <path id="Path_31" data-name="Path 31" d="M358.109,441.071a21.427,21.427,0,0,0-2.35-10.479,9.867,9.867,0,0,0-8.5-5.169c-8.74,0-11.136,9.4-11.136,16.164s2.725,15.553,11.042,15.553,10.948-9.4,10.948-16.07m-27.159.423c0-9.4,4.7-20.064,16.164-20.064s16.117,9.868,16.117,19.359-4.7,20.252-16.07,20.252-16.211-9.868-16.211-19.547" transform="translate(61.169 -228.996)" fill="#003a5d"/>
    <path id="Path_32" data-name="Path 32" d="M366.59,421.55v24.34a14.755,14.755,0,0,1-2.866,10.431,13.439,13.439,0,0,1-10.572,4.276,13.768,13.768,0,0,1-10.525-3.712,15.131,15.131,0,0,1-3.1-11V421.55h4.934v24.34a13.72,13.72,0,0,0,1.457,7.471,10.854,10.854,0,0,0,14.66.235,11.043,11.043,0,0,0,1.927-7.706V421.55Z" transform="translate(92.534 -228.552)" fill="#003a5d"/>
    <path id="Path_33" data-name="Path 33" d="M124.115,79.534,104.1,45.984v33.55H100.01V41.05h6.155L124.82,72.438V41.05h4.088V79.534Z" transform="translate(369.922 151.948)" fill="#003a5d"/>
    <path id="Path_34" data-name="Path 34" d="M385.566,448.5a14.425,14.425,0,0,1-14.519,12.546c-11.371,0-15.976-10.713-15.976-20.2s4.981-19.406,16.352-19.406a14.1,14.1,0,0,1,14.1,12.264l-4.7.846c-1.41-4.7-3.853-9.069-9.68-9.069-8.552,0-10.854,9.069-10.854,15.741a24.242,24.242,0,0,0,1.833,9.632A9.774,9.774,0,0,0,370.905,457c6.015,0,8.834-4.417,10.056-9.4l4.464.987Z" transform="translate(150.385 -228.996)" fill="#003a5d"/>
    <g id="Group_5" data-name="Group 5" transform="translate(0 0.111)" clip-path="url(#clip-path)">
      <path id="Path_35" data-name="Path 35" d="M116.15,41.05h4.934V79.534H116.15V41.05Z" transform="translate(429.621 151.838)" fill="#003a5d"/>
      <path id="Path_36" data-name="Path 36" d="M142.992,79.534H119.78V41.05h4.934V75.258h18.279v4.276Z" transform="translate(443.048 151.838)" fill="#003a5d"/>
      <path id="Path_37" data-name="Path 37" d="M278.28,460.792a14.661,14.661,0,0,1-14.519,12.734c-11.512,0-16.211-10.854-16.211-20.487s5.075-19.688,16.634-19.688A14.379,14.379,0,0,1,278.516,445.8l-4.7.893c-1.41-4.981-3.9-9.4-9.821-9.4-8.646,0-11,9.4-11,16.023a24.054,24.054,0,0,0,1.879,9.727,9.868,9.868,0,0,0,8.881,6.25c6.108,0,8.928-4.7,10.243-9.4l4.7.987Z" transform="translate(-247.315 -185.016)" fill="#81c341"/>
    </g>
    <path id="Path_38" data-name="Path 38" d="M283.675,453.273a21.945,21.945,0,0,0-2.349-10.62,10.008,10.008,0,0,0-8.6-5.263c-8.928,0-11.324,9.4-11.324,16.4s2.772,15.788,11.183,15.788,11.089-9.4,11.089-16.305m-27.535.47c0-9.727,4.7-20.393,16.4-20.393s16.4,10.009,16.4,19.641-5.028,20.534-16.352,20.534-16.446-10.009-16.446-19.782" transform="translate(-215.542 -184.905)" fill="#81c341"/>
    <path id="Path_39" data-name="Path 39" d="M42.244,92.017,21.992,58v34.02H17.81V52.97h6.249L42.949,84.781V52.97h4.182V92.017Z" transform="translate(65.876 196.039)" fill="#81c341"/>
    <path id="Path_40" data-name="Path 40" d="M277.666,461.514a11.277,11.277,0,0,0,11.794,7.894,12.6,12.6,0,0,0,7.142-1.927,6.532,6.532,0,0,0,2.443-5.028c0-3.9-3.336-5.5-6.813-6.39l-6.625-1.551a15.315,15.315,0,0,1-7.189-3.148,9.4,9.4,0,0,1-3.242-7.236c0-7.518,6.625-10.76,13.533-10.76a14.1,14.1,0,0,1,14.1,9.4l-4.7,1.175a9.821,9.821,0,0,0-9.774-6.907c-3.759,0-8.552,1.974-8.552,6.249s3.524,5.31,7.236,6.2l5.967,1.409a16.683,16.683,0,0,1,7.283,3.007,9.4,9.4,0,0,1,3.712,7.753,11,11,0,0,1-4.464,8.881,17.576,17.576,0,0,1-10.431,2.819,15.506,15.506,0,0,1-16.164-11.089l4.7-.94Z" transform="translate(-153.476 -184.923)" fill="#81c341"/>
    <path id="Path_41" data-name="Path 41" d="M308.446,433.47v24.716a14.942,14.942,0,0,1-2.913,10.573,13.628,13.628,0,0,1-10.76,4.323,14.1,14.1,0,0,1-10.713-3.759,15.411,15.411,0,0,1-3.1-11.136V433.47h4.981v24.716a13.627,13.627,0,0,0,1.5,7.565,11.043,11.043,0,0,0,14.9.235,11.229,11.229,0,0,0,1.927-7.8V433.47Z" transform="translate(-124.11 -184.461)" fill="#81c341"/>
    <path id="Path_42" data-name="Path 42" d="M65.074,92.017H41.58V52.97h4.981V87.694H65.074v4.323Z" transform="translate(153.798 196.039)" fill="#81c341"/>
    <path id="Path_43" data-name="Path 43" d="M56.884,92.017V57.246H45.56V52.97H73.189v4.276H61.865V92.017Z" transform="translate(168.519 196.039)" fill="#81c341"/>
    <path id="Path_44" data-name="Path 44" d="M53.16,52.97h5.028V92.017H53.16V52.97Z" transform="translate(196.631 196.039)" fill="#81c341"/>
    <path id="Path_45" data-name="Path 45" d="M81.264,92.017,61.012,58v34.02H56.83V52.97h6.249L81.969,84.781V52.97h4.182V92.017Z" transform="translate(210.205 196.039)" fill="#81c341"/>
    <path id="Path_46" data-name="Path 46" d="M344.127,473.143h-3.054l-1.363-4.7a12.875,12.875,0,0,1-11.042,5.122,14.519,14.519,0,0,1-12.4-6.015,21.944,21.944,0,0,1-4.182-13.674c0-10.244,5.451-20.487,17.245-20.487a14.1,14.1,0,0,1,14.426,11.23l-4.7,1.128A9.914,9.914,0,0,0,329,437.479c-8.975,0-11.465,9.022-11.465,16.164a22.647,22.647,0,0,0,2.256,10.384,10.714,10.714,0,0,0,9.4,5.592,9.4,9.4,0,0,0,9.961-10.056V457.4h-9.914v-4.088h15.036v19.97Z" transform="translate(-8.676 -184.805)" fill="#81c341"/>
    <path id="Path_47" data-name="Path 47" d="M325.719,446.017H330a3.571,3.571,0,0,0,2.631-.987,3.383,3.383,0,0,0,1.034-2.537,3.9,3.9,0,0,0-.893-2.444,3.289,3.289,0,0,0-2.631-1.034h-4.417Zm0,9.4H323.37V437.231h6.578a5.968,5.968,0,0,1,4.7,1.645,5.639,5.639,0,0,1,1.457,3.759,5.357,5.357,0,0,1-1.6,3.9,6.015,6.015,0,0,1-4.182,1.5h-4.7v7.377Z" transform="translate(33.131 -170.648)" fill="#003a5d"/>
    <path id="Path_48" data-name="Path 48" d="M93.511,56.68,87.262,74.865H85.007L78.71,56.68h2.443l5.216,15.036L91.491,56.68Z" transform="translate(291.136 209.761)" fill="#003a5d"/>
    <path id="Path_49" data-name="Path 49" d="M89.6,74.865H87.25V58.7H81.94V56.68H94.909V58.7H89.6V74.865Z" transform="translate(303.083 209.761)" fill="#003a5d"/>
    <path id="Path_50" data-name="Path 50" d="M87.814,59.92v2.96H84.76V59.92Z" transform="translate(313.514 221.746)" fill="#003a5d"/>
    <path id="Path_51" data-name="Path 51" d="M98.748,72.891v1.974H87.8V56.68h2.4V72.891Z" transform="translate(324.759 209.761)" fill="#003a5d"/>
    <path id="Path_52" data-name="Path 52" d="M97.309,74.865H94.96V58.7H89.65V56.68h13.016V58.7H97.309V74.865Z" transform="translate(331.602 209.761)" fill="#003a5d"/>
    <path id="Path_53" data-name="Path 53" d="M342.812,453.444h3.759a5.31,5.31,0,0,0,4.7-2.021,8.645,8.645,0,0,0,1.551-5.357,8.364,8.364,0,0,0-1.457-4.7,5.262,5.262,0,0,0-4.7-2.114h-3.853v14.191Zm-2.3,1.927V437.186h6.2a7.706,7.706,0,0,1,6.156,2.631,9.68,9.68,0,0,1,2.161,6.438,10.054,10.054,0,0,1-2.114,6.484,6.673,6.673,0,0,1-5.451,2.631Z" transform="translate(96.53 -170.745)" fill="#003a5d"/>
    <path id="Path_54" data-name="Path 54" d="M99.784,59.92v2.96H96.73V59.92Z" transform="translate(357.789 221.746)" fill="#003a5d"/>
    <path id="Path_55" data-name="Path 55" d="M357.653,406.126a151.35,151.35,0,0,0-90.218,137.3h14.1a137.817,137.817,0,0,1,106.1-132.836A139.274,139.274,0,0,0,286.466,543.426h13.2A126.869,126.869,0,0,1,414.838,418.343,127.48,127.48,0,0,0,306.06,543.426h12.5c0-63.293,52.486-114.7,117.048-114.7h4.417c-63.481,1.457-114.464,52.533-114.464,114.7h11.324A104.784,104.784,0,0,1,442.655,440.051a95.254,95.254,0,0,1,17.715,1.457,99.735,99.735,0,0,0-10.948-.7,104.079,104.079,0,0,0-104.6,102.858h10.619a94.588,94.588,0,0,1,123.11-87.727,87.021,87.021,0,0,0-21.9-2.584,91.345,91.345,0,0,0-92.144,90.312h9.4a81.9,81.9,0,0,1,82.7-81.055,83.686,83.686,0,0,1,37.027,8.5A80.631,80.631,0,0,0,463.8,465.19a79.316,79.316,0,0,0-79.88,78.471h8.317a71.47,71.47,0,0,1,112.349-57.326,68.134,68.134,0,0,0-34.4-9.4A66.771,66.771,0,0,0,403,543.191h7.565a59.346,59.346,0,0,1,60-58.83,60.8,60.8,0,0,1,42.713,17.386,55.4,55.4,0,0,0-91.017,41.444h6.766a48.868,48.868,0,0,1,89.278-25.938A43.982,43.982,0,0,0,484.71,501a42.571,42.571,0,0,0-43.041,42.29h5.639A37.591,37.591,0,0,1,520.562,532.9,30.637,30.637,0,0,0,491.9,513.306a30.12,30.12,0,0,0-30.59,29.979h4.7a25.844,25.844,0,0,1,26.079-25.562,26.361,26.361,0,0,1,24.9,18.137,18.8,18.8,0,0,0-17.01-10.713,18.373,18.373,0,0,0-18.513,18.137h3.806a14.566,14.566,0,0,1,14.708-14.425,14.378,14.378,0,0,1,14.754,14.425h65.784c0-89.936-74.383-162.815-166.151-162.815s-166.2,72.973-166.2,162.956h15.083a148.578,148.578,0,0,1,94.4-137.3" transform="translate(-245.022 -380.5)" fill="#81c341"/>
    <path id="Path_56" data-name="Path 56" d="M459.013,81.323H.03V64.83H459.013V81.323Z" transform="translate(0.111 239.907)" fill="#003a5d"/>
    <path id="Path_57" data-name="Path 57" d="M7.614,97.168V77.292H.19V73.58H19.079v3.712H11.655V97.168Z" transform="translate(0.703 272.272)" fill="#003a5d"/>
    <path id="Path_58" data-name="Path 58" d="M251.51,472.689V455.773H255.5v2.772h0a6.861,6.861,0,0,1,6.25-3.1h.235v3.618h-1.081a5.874,5.874,0,0,0-5.357,3.008v10.713Z" transform="translate(-232.668 -103.249)" fill="#003a5d"/>
    <path id="Path_59" data-name="Path 59" d="M265.277,467.976v-3.759c-4.7.658-7.33,1.786-7.33,3.665s.94,2.02,2.4,2.02a7,7,0,0,0,4.7-1.927ZM254,468.587c0-3.665,3.2-6.108,11.277-7v-.517c0-1.691-.94-2.4-2.819-2.4a9.4,9.4,0,0,0-5.827,2.255l-1.974-2.443a12.5,12.5,0,0,1,8.317-3.054c4.7,0,6.249,2.161,6.249,6.108v7a11.044,11.044,0,0,0,.47,4.135h-4.041a5.929,5.929,0,0,1-.376-2.161,8.553,8.553,0,0,1-6.391,2.443,4.323,4.323,0,0,1-4.7-4.37Z" transform="translate(-223.458 -103.235)" fill="#003a5d"/>
    <path id="Path_60" data-name="Path 60" d="M258.16,472.69V455.774h3.947v2.678a8.13,8.13,0,0,1,6.156-3.007,4.7,4.7,0,0,1,5.122,4.934V472.69H269.39V461.507c0-1.833-.8-2.819-2.631-2.819a7,7,0,0,0-4.7,2.208V472.69Z" transform="translate(-208.07 -103.25)" fill="#003a5d"/>
    <path id="Path_61" data-name="Path 61" d="M262.05,470.381l2.161-2.4a8.694,8.694,0,0,0,5.451,1.973c2.115,0,3.43-.517,3.43-1.927s-1.739-1.785-3.853-2.255c-2.96-.658-6.484-1.457-6.484-5.357,0-2.96,2.584-4.981,6.39-4.981a10.292,10.292,0,0,1,7.1,2.4l-1.927,2.537a8.554,8.554,0,0,0-4.7-1.833c-2.255,0-2.96.752-2.96,1.692s1.739,1.785,3.806,2.255c2.96.658,6.578,1.363,6.578,5.31s-3.289,5.263-7.236,5.263a11.091,11.091,0,0,1-7.612-2.678Z" transform="translate(-193.682 -103.244)" fill="#003a5d"/>
    <path id="Path_62" data-name="Path 62" d="M268.52,477.742V463.928h-2.96v-3.1h2.96v-1.739c0-2.819,1.222-5.028,5.639-5.028h2.349v3.054a5.261,5.261,0,0,0-1.363,0c-1.41,0-2.584.376-2.584,2.208v1.5h3.759v3.1h-3.759v13.815Z" transform="translate(-180.699 -108.302)" fill="#003a5d"/>
    <path id="Path_63" data-name="Path 63" d="M280.966,464.454c0-3.148-1.363-5.451-4.417-5.451s-4.37,2.067-4.37,5.451S273.5,470,276.55,470,280.966,467.932,280.966,464.454Zm-12.828,0a8.458,8.458,0,1,1,4.025,7.848,8.459,8.459,0,0,1-4.025-7.848Z" transform="translate(-171.248 -103.472)" fill="#003a5d"/>
    <path id="Path_64" data-name="Path 64" d="M272.45,472.69V455.774h3.994v2.772h0a6.766,6.766,0,0,1,6.2-3.1h.282v3.618h-1.081a5.921,5.921,0,0,0-5.357,3.008v10.713Z" transform="translate(-155.214 -103.249)" fill="#003a5d"/>
    <path id="Path_65" data-name="Path 65" d="M275.31,472.677V455.761H279.3v2.35a7.987,7.987,0,0,1,5.921-2.632,4.323,4.323,0,0,1,4.7,2.773,8.317,8.317,0,0,1,6.062-2.772,4.7,4.7,0,0,1,5.028,5.122v12.123h-3.994V461.587c0-1.88-.564-2.772-2.443-2.772a6.862,6.862,0,0,0-4.417,2.208v11.7h-3.994V461.587c0-1.88-.564-2.772-2.443-2.772a6.862,6.862,0,0,0-4.417,2.208v11.7Z" transform="translate(-144.635 -103.237)" fill="#003a5d"/>
    <path id="Path_66" data-name="Path 66" d="M286.1,472.66v-9.4H283.09v-3.1H286.1v-5.92h3.994v5.92h4.464v3.1h-4.464v8.646c0,1.786.564,2.538,2.537,2.538a5.973,5.973,0,0,0,1.739-.235v3.1a20.077,20.077,0,0,1-2.913,0c-4.417,0-5.357-1.6-5.357-4.7Z" transform="translate(-115.858 -107.637)" fill="#003a5d"/>
    <path id="Path_67" data-name="Path 67" d="M286.23,477.594V454.1h4.041v8.928a8.6,8.6,0,0,1,6.3-2.631,4.7,4.7,0,0,1,4.981,5.122v12.123h-4.041V466.505c0-1.88-.8-2.772-2.537-2.772a7,7,0,0,0-4.7,2.208v11.7Z" transform="translate(-104.244 -108.154)" fill="#003a5d"/>
    <path id="Path_68" data-name="Path 68" d="M302.438,462.623a3.588,3.588,0,0,0-3.947-3.947,4.041,4.041,0,0,0-4.135,3.947Zm-12.123,1.645a8.129,8.129,0,0,1,8.223-8.786c3.9,0,7.565,2.255,7.565,9.162v.893H294.309a4.229,4.229,0,0,0,4.7,4.417,6.343,6.343,0,0,0,4.7-1.974L305.821,470a9.4,9.4,0,0,1-7.283,3.1,7.941,7.941,0,0,1-8.317-8.834Z" transform="translate(-89.674 -103.05)" fill="#003a5d"/>
    <path id="Path_69" data-name="Path 69" d="M302,477.594,295.56,454.1H299.7l3.054,12.217c.47,1.88.94,3.618,1.269,5.5h0c.329-1.833.752-3.571,1.269-5.451l2.866-12.264h3.9l3.007,12.311c.517,2.02.893,3.43,1.269,5.4h0c.376-2.068.752-3.289,1.175-5.31l3.007-12.405h3.806l-6.343,23.494h-3.524l-4.37-18.091h0l-4.7,18.091Z" transform="translate(-69.734 -108.154)" fill="#003a5d"/>
    <path id="Path_70" data-name="Path 70" d="M314.536,463.662c0-3.148-1.363-5.451-4.37-5.451s-4.417,2.067-4.417,5.451,1.363,5.544,4.417,5.544S314.536,467.139,314.536,463.662Zm-12.828,0a8.458,8.458,0,1,1,8.458,8.834,8.083,8.083,0,0,1-8.458-8.834Z" transform="translate(-47.125 -102.68)" fill="#003a5d"/>
    <path id="Path_71" data-name="Path 71" d="M306,472.689V455.773h3.994v2.772h0a6.861,6.861,0,0,1,6.249-3.1h.235v3.618H315.4a5.874,5.874,0,0,0-5.357,3.008v10.713Z" transform="translate(-31.118 -103.249)" fill="#003a5d"/>
    <path id="Path_72" data-name="Path 72" d="M61.41,97.168V73.58h4.041V97.168Z" transform="translate(227.146 272.272)" fill="#003a5d"/>
    <path id="Path_73" data-name="Path 73" d="M323.019,472.573V465.76a5.357,5.357,0,0,0-4.088-2.115c-3.007,0-4.229,1.927-4.229,5.686s1.551,5.357,4.135,5.357a5.968,5.968,0,0,0,4.182-2.115Zm-12.358-3.336c0-5.874,2.96-8.834,7.424-8.834a6.767,6.767,0,0,1,4.934,2.115V454.06h3.853v19.453a10.808,10.808,0,0,0,.517,4.135h-4.135a6.017,6.017,0,0,1-.376-2.3,6.859,6.859,0,0,1-5.5,2.585c-3.947,0-6.86-2.82-6.86-8.693Z" transform="translate(-14.399 -108.302)" fill="#003a5d"/>
    <path id="Path_74" data-name="Path 74" d="M76.144,97.168V77.292H68.72V73.58H87.656v3.712H80.232V97.168Z" transform="translate(254.185 272.272)" fill="#003a5d"/>
    <path id="Path_75" data-name="Path 75" d="M332.656,463.662c0-3.148-1.363-5.451-4.37-5.451s-4.417,2.067-4.417,5.451,1.363,5.544,4.417,5.544S332.656,467.139,332.656,463.662Zm-12.828,0a8.458,8.458,0,1,1,8.458,8.834,8.083,8.083,0,0,1-8.458-8.834Z" transform="translate(19.898 -102.68)" fill="#003a5d"/>
    <path id="Path_76" data-name="Path 76" d="M335.685,461.49a3.1,3.1,0,0,0-3.524-3.289,3.148,3.148,0,0,0-3.524,3.289c0,2.068,1.316,3.2,3.524,3.2S335.685,463.558,335.685,461.49Zm1.786,12.828c0-1.222-.893-1.691-4.417-1.927h-3.007a4.025,4.025,0,0,1-1.034,0,2.4,2.4,0,0,0-1.6,2.208c0,1.457,1.786,1.974,5.263,1.974s4.7-.8,4.7-1.974Zm-13.721.658a3.806,3.806,0,0,1,2.819-3.571,2.3,2.3,0,0,1-1.316-2.068,3.9,3.9,0,0,1,2.349-3.1,5.5,5.5,0,0,1-2.725-4.7c0-3.477,2.725-6.062,7.236-6.062a7.8,7.8,0,0,1,5.31,1.786,8.69,8.69,0,0,1,4.276-1.645v3.2a11.175,11.175,0,0,0-3.007.423,4.419,4.419,0,0,1,.611,2.3c0,3.524-2.678,6.015-7.189,6.015a7.806,7.806,0,0,1-2.4-.329c-.517.282-.893.611-.893,1.081s.47.893,1.974,1.034h3.054c5.122.282,7.142,1.645,7.142,4.7s-3.571,5.169-8.928,5.169-8.317-1.691-8.317-4.135Z" transform="translate(34.537 -103.092)" fill="#003a5d"/>
    <path id="Path_77" data-name="Path 77" d="M340.061,462.623c-.235-2.584-1.551-3.947-3.947-3.947a4.041,4.041,0,0,0-4.135,3.947Zm-12.123,1.645a8.129,8.129,0,0,1,8.223-8.786c3.853,0,7.565,2.255,7.565,9.162v.893H331.932a4.229,4.229,0,0,0,4.7,4.417,6.156,6.156,0,0,0,4.7-1.974L343.444,470a9.4,9.4,0,0,1-7.236,3.1,7.941,7.941,0,0,1-8.317-8.834Z" transform="translate(49.661 -103.05)" fill="#003a5d"/>
    <path id="Path_78" data-name="Path 78" d="M334.627,472.66v-9.4H331.62v-3.1h3.007v-5.92h3.994v5.92h4.464v3.1h-4.464v8.646c0,1.786.564,2.538,2.537,2.538a5.973,5.973,0,0,0,1.738-.235v3.1a20.074,20.074,0,0,1-2.913,0c-4.417,0-5.357-1.6-5.357-4.7Z" transform="translate(63.647 -107.637)" fill="#003a5d"/>
    <path id="Path_79" data-name="Path 79" d="M334.76,477.594V454.1H338.8v8.928a8.5,8.5,0,0,1,6.3-2.631,4.7,4.7,0,0,1,4.981,5.122v12.123h-4.041V466.505c0-1.88-.8-2.772-2.537-2.772a7,7,0,0,0-4.7,2.208v11.7Z" transform="translate(75.261 -108.154)" fill="#003a5d"/>
    <path id="Path_80" data-name="Path 80" d="M350.931,462.623c-.235-2.584-1.551-3.947-3.947-3.947a4.041,4.041,0,0,0-4.135,3.947Zm-12.123,1.645a8.129,8.129,0,0,1,8.223-8.786c3.853,0,7.565,2.255,7.565,9.162v.893H342.8a4.229,4.229,0,0,0,4.7,4.417,6.155,6.155,0,0,0,4.7-1.974L354.314,470a9.4,9.4,0,0,1-7.236,3.1,7.941,7.941,0,0,1-8.317-8.834Z" transform="translate(89.868 -103.05)" fill="#003a5d"/>
    <path id="Path_81" data-name="Path 81" d="M342.84,472.689V455.773h3.994v2.772h0a6.861,6.861,0,0,1,6.25-3.1h.235v3.618h-1.081a5.874,5.874,0,0,0-5.357,3.007v10.713Z" transform="translate(105.148 -103.249)" fill="#003a5d"/>
  </g>
</svg>
